Coordinates
version=1
nRows=49
nColumns=12
inDegrees=yes

Units are S.I. units (second, meters, Newtons, ...)
Angles are in degrees

endheader
time	SC_y	SC_z	SC_x	AC_y	AC_z	AC_x	GH_y	GH_z	GH_yy	EL_x	PS_y
       0.0              -25.21          11.75          12.34          48.02         -2.183          10.56          9.563          67.63         -75.72          24.83          153.3
   0.04392              -25.21          11.76          12.34          48.02         -2.183          10.56          9.544          67.62         -75.68          24.84          153.3
   0.08784              -25.21          11.76          12.35          48.02         -2.183          10.56          9.523           67.6         -75.65          24.85          153.3
    0.1318              -25.22          11.76          12.35          48.02         -2.184          10.56          9.501          67.59         -75.61          24.86          153.3
    0.1757              -25.22          11.77          12.36          48.02         -2.184          10.56          9.477          67.58         -75.57          24.87          153.3
    0.2196              -25.22          11.77          12.36          48.02         -2.184          10.56          9.452          67.56         -75.53          24.88          153.3
    0.2635              -25.22          11.78          12.37          48.03         -2.184          10.57          9.425          67.55         -75.49           24.9          153.3
    0.3074              -25.23          11.78          12.37          48.03         -2.184          10.57          9.396          67.53         -75.44          24.91          153.3
    0.3513              -25.23          11.79          12.38          48.03         -2.184          10.57          9.365          67.51         -75.39          24.93          153.3
    0.3953              -25.23          11.79          12.38          48.03         -2.185          10.57          9.332          67.49         -75.33          24.95          153.3
    0.4392              -25.24           11.8          12.39          48.03         -2.185          10.57          9.297          67.47         -75.27          24.96          153.3
    0.4831              -25.24           11.8           12.4          48.04         -2.185          10.57          9.259          67.45         -75.21          24.98          153.3
     0.527              -25.25          11.81          12.41          48.04         -2.185          10.57          9.217          67.43         -75.14           25.0          153.3
    0.5709              -25.25          11.82          12.42          48.04         -2.186          10.57          9.173           67.4         -75.06          25.03          153.3
    0.6148              -25.26          11.82          12.42          48.05         -2.186          10.57          9.125          67.37         -74.98          25.05          153.3
    0.6588              -25.27          11.83          12.43          48.05         -2.186          10.58          9.072          67.34          -74.9          25.08          153.3
    0.7027              -25.27          11.84          12.45          48.05         -2.187          10.58          9.016          67.31          -74.8          25.11          153.3
    0.7466              -25.28          11.85          12.46          48.06         -2.187          10.58          8.954          67.28          -74.7          25.14          153.3
    0.7905              -25.29          11.86          12.47          48.06         -2.188          10.58          8.886          67.24         -74.58          25.17          153.3
    0.8344               -25.3          11.87          12.49          48.06         -2.188          10.58          8.812          67.19         -74.46          25.21          153.3
    0.8784              -25.31          11.88           12.5          48.07         -2.189          10.59          8.731          67.15         -74.32          25.25          153.2
    0.9223              -25.32           11.9          12.52          48.08         -2.189          10.59          8.642           67.1         -74.17           25.3          153.2
    0.9662              -25.33          11.91          12.54          48.08          -2.19          10.59          8.543          67.04         -74.01          25.35          153.2
      1.01              -25.34          11.93          12.56          48.09          -2.19           10.6          8.434          66.98         -73.82           25.4          153.2
     1.054              -25.36          11.95          12.58           48.1         -2.191           10.6          8.312           66.9         -73.62          25.46          153.2
     1.098              -25.37          11.97          12.61           48.1         -2.192           10.6          8.177          66.83         -73.39          25.53          153.2
     1.142              -25.39          11.99          12.64          48.11         -2.193          10.61          8.025          66.74         -73.14          25.61          153.2
     1.186              -25.41          12.02          12.67          48.13         -2.194          10.61          7.854          66.64         -72.85           25.7          153.2
      1.23              -25.43          12.05          12.71          48.14         -2.196          10.62          7.661          66.53         -72.53          25.79          153.2
     1.274              -25.46          12.09          12.75          48.15         -2.197          10.63          7.441           66.4         -72.16          25.91          153.2
     1.318              -25.49          12.12           12.8          48.17         -2.199          10.63          7.191          66.26         -71.74          26.03          153.2
     1.361              -25.52          12.17          12.86          48.19         -2.201          10.64          6.904          66.09         -71.26          26.18          153.2
     1.405              -25.56          12.22          12.92          48.21         -2.203          10.65          6.572           65.9         -70.71          26.35          153.2
     1.449              -25.61          12.28           13.0          48.23         -2.205          10.67          6.187          65.68         -70.06          26.54          153.2
     1.493              -25.66          12.35          13.09          48.26         -2.208          10.68          5.736          65.42          -69.3          26.77          153.2
     1.537              -25.72          12.43          13.19          48.29         -2.212           10.7          5.205          65.11         -68.41          27.04          153.2
     1.581               -25.8          12.53          13.32          48.33         -2.216          10.72          4.573          64.75         -67.36          27.36          153.2
     1.625              -25.89          12.65          13.46          48.38         -2.221          10.74          3.816          64.31         -66.09          27.75          153.2
     1.669              -25.99          12.79          13.64          48.44         -2.227          10.77            2.9          63.78         -64.55          28.21          153.2
     1.713              -26.13          12.97          13.86          48.51         -2.234           10.8          1.781          63.13         -62.68          28.78          153.2
     1.757              -26.29          13.18          14.13           48.6         -2.243          10.85            0.4          62.34         -60.36          29.49          153.1
     1.801              -26.49          13.45          14.47           48.7         -2.254           10.9         -1.322          61.34         -57.48          30.36          153.1
     1.845              -26.75          13.79          14.89          48.84         -2.269          10.97         -3.491          60.09         -53.84          31.46          153.1
     1.888              -27.07          14.22          15.43          49.01         -2.287          11.05         -6.249           58.5         -49.22          32.87          153.0
     1.932              -27.49          14.77          16.12          49.24          -2.31          11.16         -9.779          56.46         -43.31          34.66          153.0
     1.976              -28.02          15.48          17.01          49.52         -2.339           11.3         -14.31          53.84         -35.72          36.96          152.9
      2.02              -28.71          16.38          18.14          49.89         -2.377          11.48         -20.09           50.5         -26.02           39.9          152.8
     2.064              -29.57          17.52          19.57          50.35         -2.425          11.71         -27.37           46.3         -13.83           43.6          152.7
     2.108              -30.61           18.9           21.3           50.9         -2.483          11.98         -36.24          41.18           1.02          48.11          152.6
